<?xml version="1.0" standalone="no"?>
<!DOCTYPE svg PUBLIC "-//W3C//DTD SVG 20010904//EN"
 "http://www.w3.org/TR/2001/REC-SVG-20010904/DTD/svg10.dtd">
<svg version="1.0" xmlns="http://www.w3.org/2000/svg"
 width="224.000000pt" height="147.000000pt" viewBox="0 0 224.000000 147.000000"
 preserveAspectRatio="xMidYMid meet">

<g transform="translate(0.000000,147.000000) scale(0.100000,-0.100000)"
fill="#000000" stroke="none">
<path d="M240 1064 c-6 -16 -56 -144 -111 -285 -54 -141 -99 -261 -99 -268 0
-7 20 -11 53 -11 l53 0 48 138 c78 225 63 222 130 29 l58 -167 54 0 c30 0 54
4 54 9 0 10 -219 573 -225 580 -3 2 -9 -9 -15 -25z"/>
<path d="M510 916 l0 -174 131 -4 c123 -3 132 -4 150 -27 24 -29 24 -43 0 -72
-16 -20 -31 -25 -93 -29 l-73 -5 -3 -52 -3 -53 61 0 c129 0 207 43 230 129 15
58 -8 124 -51 147 l-30 15 35 32 c90 85 36 228 -96 257 -27 5 -96 10 -153 10
l-105 0 0 -174z m267 42 c30 -28 29 -62 -3 -87 -21 -16 -41 -21 -90 -21 l-64
0 0 63 c0 35 3 67 8 71 15 16 125 -3 149 -26z"/>
<path d="M940 971 l0 -121 55 0 55 0 0 65 0 65 43 0 c52 0 123 -34 151 -73 21
-29 34 -134 22 -181 -16 -65 -92 -116 -172 -116 l-44 0 0 65 0 65 -55 0 -55 0
0 -121 0 -122 108 5 c169 9 257 52 306 150 22 44 26 65 26 142 0 200 -91 280
-332 293 l-108 6 0 -122z"/>
<path d="M1740 876 l0 -214 -31 -26 c-53 -45 -158 -28 -179 30 -6 14 -10 90
-10 170 l0 144 -55 0 -55 0 0 -151 c0 -86 5 -168 12 -190 35 -117 201 -174
325 -111 93 48 103 81 103 347 l0 215 -55 0 -55 0 0 -214z"/>
<path d="M1874 1077 c-2 -7 -3 -89 -2 -182 l3 -170 53 -3 52 -3 0 185 0 186
-50 0 c-32 0 -52 -5 -56 -13z"/>
<path d="M1872 558 l3 -53 163 -3 162 -2 0 55 0 55 -166 0 -165 0 3 -52z"/>
<path d="M320 240 c0 -5 7 -10 15 -10 11 0 15 -11 15 -40 0 -29 -4 -40 -15
-40 -8 0 -15 -4 -15 -10 0 -5 16 -10 35 -10 19 0 35 5 35 10 0 6 -7 10 -15 10
-11 0 -15 11 -15 40 0 29 4 40 15 40 8 0 15 5 15 10 0 6 -16 10 -35 10 -19 0
-35 -4 -35 -10z"/>
<path d="M430 240 c0 -5 9 -10 20 -10 17 0 20 -7 20 -50 0 -27 5 -50 10 -50 6
0 10 23 10 50 0 37 4 50 14 50 8 0 18 5 21 10 4 6 -13 10 -44 10 -28 0 -51 -4
-51 -10z"/>
<path d="M661 237 c-17 -21 -4 -43 31 -53 17 -5 33 -14 35 -20 6 -17 -26 -25
-49 -13 -23 12 -39 2 -18 -11 23 -15 66 -12 80 5 18 22 5 43 -31 53 -18 4 -34
13 -36 19 -6 16 26 24 49 12 16 -9 19 -8 16 3 -6 18 -62 22 -77 5z"/>
<path d="M806 234 c-37 -36 -7 -104 45 -104 45 0 75 42 60 83 -15 39 -75 51
-105 21z m72 -10 c40 -28 22 -74 -30 -74 -21 0 -32 7 -40 26 -11 23 -10 29 11
45 28 23 31 23 59 3z"/>
<path d="M960 190 l0 -60 45 0 c25 0 45 5 45 10 0 6 -16 10 -35 10 l-35 0 0
50 c0 28 -4 50 -10 50 -6 0 -10 -27 -10 -60z"/>
<path d="M1090 212 c0 -47 24 -82 55 -82 37 0 55 26 55 77 0 54 -6 54 -13 -1
-6 -46 -17 -59 -48 -54 -21 3 -24 9 -27 51 -4 56 -22 64 -22 9z"/>
<path d="M1240 240 c0 -5 9 -10 20 -10 17 0 20 -7 20 -50 0 -27 5 -50 10 -50
6 0 10 23 10 50 0 43 3 50 20 50 11 0 20 5 20 10 0 6 -22 10 -50 10 -27 0 -50
-4 -50 -10z"/>
<path d="M1380 240 c0 -5 5 -10 10 -10 6 0 10 -18 10 -40 0 -22 -4 -40 -10
-40 -5 0 -10 -4 -10 -10 0 -5 14 -10 30 -10 17 0 30 5 30 10 0 6 -4 10 -10 10
-5 0 -10 18 -10 40 0 22 5 40 10 40 6 0 10 5 10 10 0 6 -13 10 -30 10 -16 0
-30 -4 -30 -10z"/>
<path d="M1507 232 c-37 -41 -9 -102 46 -102 32 0 67 32 67 60 0 50 -79 79
-113 42z m85 -16 c22 -32 -1 -66 -44 -66 -47 0 -60 66 -16 83 17 7 51 -3 60
-17z"/>
<path d="M1660 190 c0 -33 4 -60 10 -60 6 0 10 21 10 48 l1 47 40 -47 c23 -27
45 -48 50 -48 5 0 9 27 9 60 0 38 -4 60 -11 60 -8 0 -10 -15 -6 -46 l5 -46
-47 46 c-26 25 -50 46 -54 46 -4 0 -7 -27 -7 -60z"/>
<path d="M1841 236 c-19 -22 -9 -38 29 -51 19 -6 35 -16 37 -22 6 -16 -26 -24
-49 -12 -23 12 -39 2 -18 -11 23 -15 66 -12 80 5 18 22 5 45 -30 51 -35 8 -47
21 -31 37 7 7 18 7 37 -1 20 -10 25 -10 22 0 -7 19 -62 22 -77 4z"/>
<path d="M560 180 c0 -5 11 -10 25 -10 14 0 25 5 25 10 0 6 -11 10 -25 10 -14
0 -25 -4 -25 -10z"/>
</g>
</svg>
