<?xml version="1.0" standalone="no"?>
<!DOCTYPE svg PUBLIC "-//W3C//DTD SVG 20010904//EN"
 "http://www.w3.org/TR/2001/REC-SVG-20010904/DTD/svg10.dtd">
<svg version="1.0" xmlns="http://www.w3.org/2000/svg"
 width="234.000000pt" height="154.000000pt" viewBox="0 0 234.000000 154.000000"
 preserveAspectRatio="xMidYMid meet">

<g transform="translate(0.000000,154.000000) scale(0.100000,-0.100000)"
fill="#000000" stroke="none">
<path d="M0 770 l0 -770 1170 0 1170 0 0 770 0 770 -1170 0 -1170 0 0 -770z
m420 101 c56 -145 106 -275 111 -288 9 -24 8 -24 -52 -21 l-61 3 -54 154 c-30
85 -56 156 -58 159 -4 4 -18 -32 -80 -210 l-38 -108 -60 0 c-44 0 -59 3 -55
13 3 6 48 122 100 257 124 320 126 325 136 314 5 -5 54 -128 111 -273z m461
247 c60 -35 83 -82 76 -151 -4 -42 -11 -56 -39 -82 l-34 -32 28 -16 c31 -18
58 -70 58 -114 0 -48 -37 -107 -82 -133 -34 -19 -62 -25 -130 -28 l-88 -4 0
56 0 56 63 0 c95 0 128 25 113 85 -9 34 -53 45 -177 45 l-109 0 0 176 0 176
138 -4 c128 -3 140 -5 183 -30z m331 21 c72 -16 118 -40 160 -87 49 -54 63
-101 62 -202 -2 -199 -115 -290 -359 -290 l-85 0 0 120 0 120 55 0 55 0 0 -66
0 -67 54 6 c109 11 159 61 164 167 6 118 -52 187 -169 198 l-49 5 0 -67 0 -66
-55 0 -55 0 0 120 0 120 85 0 c46 0 108 -5 137 -11z m688 -209 c0 -246 -4
-265 -63 -317 -66 -58 -175 -70 -262 -29 -101 47 -115 84 -115 296 l0 160 54
0 55 0 3 -156 3 -156 34 -30 c30 -27 39 -30 84 -25 39 3 56 11 74 31 22 26 23
32 23 237 l0 209 55 0 55 0 0 -220z m138 33 l2 -183 -60 0 -60 0 0 185 0 186
58 -3 57 -3 3 -182z m212 -348 l0 -55 -165 0 -165 0 0 55 0 55 165 0 165 0 0
-55z m-1810 -315 c0 -5 -4 -10 -10 -10 -5 0 -10 -18 -10 -40 0 -22 5 -40 10
-40 6 0 10 -4 10 -10 0 -5 -16 -10 -35 -10 -19 0 -35 5 -35 10 0 6 5 10 10 10
6 0 10 18 10 40 0 22 -4 40 -10 40 -5 0 -10 5 -10 10 0 6 16 10 35 10 19 0 35
-4 35 -10z m140 0 c0 -5 -9 -10 -20 -10 -17 0 -20 -7 -20 -50 0 -27 -4 -50
-10 -50 -5 0 -10 23 -10 50 0 43 -3 50 -20 50 -11 0 -20 5 -20 10 0 6 23 10
50 10 28 0 50 -4 50 -10z m212 -5 c-1 -5 -16 -8 -33 -6 -42 4 -34 -20 9 -31
25 -7 32 -14 32 -33 0 -28 -33 -41 -75 -31 -41 10 -28 25 16 19 32 -5 41 -3
37 8 -2 7 -19 17 -37 21 -62 17 -47 71 18 66 20 -2 35 -7 33 -13z m164 -11
c23 -34 9 -75 -29 -88 -63 -23 -118 35 -83 88 24 37 88 37 112 0z m74 -24 l0
-50 35 0 c19 0 35 -4 35 -10 0 -5 -20 -10 -45 -10 l-45 0 0 60 c0 33 4 60 10
60 6 0 10 -22 10 -50z m132 9 c3 -45 24 -67 52 -56 11 5 16 19 16 52 0 25 5
45 10 45 14 0 12 -94 -2 -108 -17 -17 -64 -15 -82 4 -17 17 -23 104 -7 104 6
0 11 -19 13 -41z m228 31 c0 -5 -9 -10 -20 -10 -17 0 -20 -7 -20 -50 0 -27 -4
-50 -10 -50 -5 0 -10 23 -10 50 0 43 -3 50 -20 50 -11 0 -20 5 -20 10 0 6 23
10 50 10 28 0 50 -4 50 -10z m110 0 c0 -5 -7 -10 -15 -10 -11 0 -15 -11 -15
-40 0 -29 4 -40 15 -40 8 0 15 -4 15 -10 0 -5 -18 -10 -40 -10 -22 0 -40 5
-40 10 0 6 7 10 15 10 11 0 15 11 15 40 0 29 -4 40 -15 40 -8 0 -15 5 -15 10
0 6 18 10 40 10 22 0 40 -4 40 -10z m152 -7 c22 -20 23 -61 1 -85 -20 -22 -70
-23 -95 -1 -22 20 -24 66 -2 87 20 21 73 20 96 -1z m120 -25 l37 -43 1 43 c0
23 5 42 10 42 6 0 10 -27 10 -60 0 -33 -4 -60 -9 -60 -5 0 -27 20 -50 45 l-41
45 0 -45 c0 -25 -4 -45 -10 -45 -6 0 -10 27 -10 60 0 73 10 76 62 18z m195 26
c2 -6 -10 -8 -32 -6 -44 5 -47 -14 -3 -26 68 -17 59 -76 -11 -70 -26 2 -37 8
-40 23 -3 16 -1 17 12 6 17 -14 62 -12 62 3 0 6 -15 14 -33 18 -35 9 -48 28
-38 54 7 17 77 16 83 -2z m-1307 -54 c0 -5 -11 -10 -25 -10 -14 0 -25 5 -25
10 0 6 11 10 25 10 14 0 25 -4 25 -10z"/>
<path d="M670 974 l0 -66 70 4 c78 4 103 19 103 64 0 44 -34 64 -109 64 l-64
0 0 -66z"/>
<path d="M860 270 c-16 -30 4 -60 40 -60 19 0 33 7 40 20 16 30 -4 60 -40 60
-19 0 -33 -7 -40 -20z"/>
<path d="M1567 284 c-12 -12 -8 -51 7 -64 35 -28 93 11 70 48 -11 17 -64 29
-77 16z"/>
</g>
</svg>
